# xmcd
#
# Track frame offsets:
#	150
#	14502
#	33465
#	57122
#	76517
#	99484
#	123175
#	142648
#	160144
#	184956
#	202777
#	216612
#	235280
#
# Disc length: 3290 seconds
#
# Revision: 0
# Processed by: cddbd v1.5.2PL0 Copyright (c) Steve Scherf et al.
# Submitted via: EasyCDDAExtractor 16.0.6.1
#
DISCID=a30cd80d
DTITLE=Μπικάκης Στέλιος - Μιά βόλτα στο σκοτάδι-Σ. Μπικάκης
DYEAR=2000
DGENRE=Κρητική
TTITLE0=Εισαγωγή [ριζίτικο παραδ., διασκ. Σ. Μπικάκης]
TTITLE1=Ο ανθός [μουσ. στ. Στέλιος Μπικάκης]
TTITLE2=Ρεθεμνιώτικος σιγανός [μουσ. στ. Στέλιος Μπικάκης]
TTITLE3=Απαγορευτικό [μουσ. στ. Στέλιος Μπικάκης]
TTITLE4=Τα χρόνια μου [μουσ. στ. Στέλιος Μπικάκης]
TTITLE5=Ομβριοπούλα [παραδοσιακό]
TTITLE6=Μιά βόλτα στο σκοτάδι [μουσ. στ. Στέλιος Μπικάκης]
TTITLE7=Συρτός εγκοιμονούσας [μουσ. στ. Στέλιος Μπικάκης]
TTITLE8=Νοσταλγικό [μουσ. στ. Στέλιος Μπικάκης]
TTITLE9=Ερωφίλη [Στέλιος Μπικάκης-Γιώργος Χορτάτζης]
TTITLE10=Κυκλάδες [Στέλιος Μπικάκης-Γ. Σταυρούλιας]
TTITLE11=Γλυκά κρασιά [μουσ. στ. Στέλιος Μπικάκης]
TTITLE12=Όταν η ψυχή τραγουδεί το στόμα σωπαίνει
EXTD=
EXTT0=
EXTT1=
EXTT2=
EXTT3=
EXTT4=
EXTT5=
EXTT6=
EXTT7=
EXTT8=
EXTT9=
EXTT10=
EXTT11=
EXTT12=
PLAYORDER=
